<svg width="52" height="52" viewBox="0 0 52 52" fill="none" xmlns="http://www.w3.org/2000/svg">
<g clip-path="url(#clip0_304_1317)">
<path d="M19.5003 2.16667V8.66667M32.5003 2.16667V8.66667M19.5003 43.3333V49.8333M32.5003 43.3333V49.8333M43.3337 19.5H49.8337M43.3337 30.3333H49.8337M2.16699 19.5H8.66699M2.16699 30.3333H8.66699M13.0003 8.66667H39.0003C41.3936 8.66667 43.3337 10.6068 43.3337 13V39C43.3337 41.3932 41.3936 43.3333 39.0003 43.3333H13.0003C10.6071 43.3333 8.66699 41.3932 8.66699 39V13C8.66699 10.6068 10.6071 8.66667 13.0003 8.66667ZM19.5003 19.5H32.5003V32.5H19.5003V19.5Z" stroke="#F3F3F3" stroke-width="3" stroke-linecap="round" stroke-linejoin="round"/>
</g>
<defs>
<clipPath id="clip0_304_1317">
<rect width="52" height="52" fill="white"/>
</clipPath>
</defs>
</svg>
