<svg width="50" height="50" viewBox="0 0 50 50" fill="none" xmlns="http://www.w3.org/2000/svg">
<path d="M4.1665 4.16666H7.79152C10.0415 4.16666 11.8123 6.10416 11.6248 8.33333L9.89567 29.0833C9.604 32.4791 12.2915 35.3958 15.7082 35.3958H37.8957C40.8957 35.3958 43.5207 32.9375 43.7498 29.9583L44.8748 14.3333C45.1248 10.875 42.4998 8.06249 39.0207 8.06249H12.1249M18.7498 16.6667H43.7498M36.4582 43.2292C36.4582 44.6674 35.2922 45.8333 33.854 45.8333C32.4158 45.8333 31.2498 44.6674 31.2498 43.2292C31.2498 41.7909 32.4158 40.625 33.854 40.625C35.2922 40.625 36.4582 41.7909 36.4582 43.2292ZM19.7915 43.2292C19.7915 44.6674 18.6256 45.8333 17.1873 45.8333C15.7491 45.8333 14.5832 44.6674 14.5832 43.2292C14.5832 41.7909 15.7491 40.625 17.1873 40.625C18.6256 40.625 19.7915 41.7909 19.7915 43.2292Z" stroke="white" stroke-width="3" stroke-miterlimit="10" stroke-linecap="round" stroke-linejoin="round"/>
</svg>
