<svg width="31" height="31" viewBox="0 0 31 31" fill="none" xmlns="http://www.w3.org/2000/svg">
<path d="M26.462 21.4498V6.39751C26.462 3.18964 24.4509 2.74548 22.4151 3.30069L14.7162 5.39814C13.3097 5.78062 12.3473 6.89103 12.3473 8.49497V24.0038M26.462 21.4498C26.462 23.5758 24.7385 25.2993 22.6125 25.2993C20.4865 25.2993 18.7631 23.5758 18.7631 21.4498C18.7631 19.3238 20.4865 17.6004 22.6125 17.6004C24.7385 17.6004 26.462 19.3238 26.462 21.4498ZM12.3473 12.4678L26.462 8.61835M12.3473 24.0161C12.3473 26.1421 10.6239 27.8656 8.49788 27.8656C6.37189 27.8656 4.64844 26.1421 4.64844 24.0161C4.64844 21.8901 6.37189 20.1667 8.49788 20.1667C10.6239 20.1667 12.3473 21.8901 12.3473 24.0161Z" stroke="white" stroke-width="1.5" stroke-linecap="round" stroke-linejoin="round"/>
</svg>
