<svg width="50" height="50" viewBox="0 0 50 50" fill="none" xmlns="http://www.w3.org/2000/svg">
<path d="M25.0001 45.8333C30.4167 45.8333 35.3334 43.7708 39.0417 40.375C38.8334 38.4166 37.5834 36.5 35.3542 35C29.6876 31.2083 20.3542 31.2083 14.6459 35C12.4167 36.5 11.1667 38.4166 10.9584 40.375C14.6667 43.7708 19.5834 45.8333 25.0001 45.8333ZM25.0001 45.8333C36.506 45.8333 45.8334 36.5059 45.8334 25C45.8334 13.494 36.506 4.16663 25.0001 4.16663C13.4941 4.16663 4.16675 13.494 4.16675 25C4.16675 36.5059 13.4941 45.8333 25.0001 45.8333ZM25.2501 26.625C25.1042 26.6041 24.9167 26.6041 24.7501 26.625C21.0834 26.5 18.1667 23.5 18.1667 19.8125C18.1667 16.0416 21.2084 12.9791 25.0001 12.9791C28.7709 12.9791 31.8334 16.0416 31.8334 19.8125C31.8126 23.5 28.9167 26.5 25.2501 26.625Z" stroke="white" stroke-width="3" stroke-linecap="round" stroke-linejoin="round"/>
</svg>
