<svg width="40" height="40" viewBox="0 0 40 40" fill="none" xmlns="http://www.w3.org/2000/svg">
<path d="M30.0002 13.3333C32.9668 17.2833 32.9668 22.7167 30.0002 26.6667M33.0502 9.16667C37.8668 15.5833 37.8668 24.4167 33.0502 30.8333M3.3335 16.6667V23.3333C3.3335 26.6667 5.00016 28.3333 8.3335 28.3333H10.7168C11.3335 28.3333 11.9502 28.5167 12.4835 28.8333L17.3502 31.8833C21.5502 34.5167 25.0002 32.6 25.0002 27.65V12.35C25.0002 7.38334 21.5502 5.48334 17.3502 8.11667L12.4835 11.1667C11.9502 11.4833 11.3335 11.6667 10.7168 11.6667H8.3335C5.00016 11.6667 3.3335 13.3333 3.3335 16.6667Z" stroke="#292D32" stroke-width="3" stroke-linecap="round"/>
</svg>
