<svg width="958" height="170" viewBox="0 0 958 170" fill="none" xmlns="http://www.w3.org/2000/svg">
<path d="M223.238 106.161C223.513 101.255 223.458 96.7354 223.238 92.7116H158.631V117.957H196.241C194.261 123.138 191.182 127.879 186.783 132.233C178.866 140.06 169.628 144.029 159.071 144.029C148.514 144.029 138.782 140.226 130.699 132.564C122.616 124.902 118.602 115.973 118.602 105.775C118.602 95.5779 122.561 85.8766 130.534 78.2149C138.507 70.498 147.964 66.6395 159.016 66.6395C164.13 66.6395 168.913 67.5215 173.367 69.2853C178.371 62.1196 184.804 56.0012 192.227 51.316C182 44.7566 170.618 41.3943 158.136 41.3943C141.256 41.3943 126.3 47.8434 113.214 60.6865C100.182 73.5847 93.6392 88.2468 93.6392 104.838C93.6392 121.429 100.182 137.249 113.324 150.092C126.465 162.935 141.971 169.329 159.841 169.329C176.556 169.329 191.237 162.825 203.994 149.872C213.341 140.336 219.224 129.698 221.754 118.012C221.754 118.012 221.754 117.847 221.754 117.736C222.414 114.484 222.798 111.177 222.908 107.76C222.908 107.208 223.018 106.767 223.073 106.216L223.238 106.161Z" fill="white"/>
<path d="M497.282 42.6619H522.795V110.956C522.795 132.013 532.033 142.541 550.508 142.541C558.7 142.541 565.188 139.729 569.972 134.107C574.756 128.485 577.175 120.768 577.175 110.956V42.6619H602.358V115.035C602.358 130.194 597.41 142.706 587.567 152.462C577.725 162.274 565.078 167.124 549.793 167.124C534.507 167.124 521.53 162.219 511.853 152.462C502.176 142.651 497.337 129.918 497.337 114.153V42.6619H497.282Z" fill="white"/>
<path d="M728.823 58.3161L711.833 73.309C707.434 70.1671 703.64 67.7969 700.396 66.1984C697.152 64.5999 693.358 63.7731 688.959 63.7731C678.622 63.7731 673.454 67.5764 673.454 75.2382C673.454 80.7502 679.997 86.0418 693.138 91.2232C706.28 96.4045 715.737 102.027 721.51 108.2C727.284 114.374 730.143 121.815 730.143 130.524C730.143 140.722 725.964 149.596 717.716 157.147C709.414 164.754 699.626 168.502 688.41 168.502C671.309 168.502 657.288 160.565 646.346 144.69L666.416 134.989C673.454 141.824 680.767 145.241 688.41 145.241C693.688 145.241 698.307 143.808 702.266 140.887C706.225 138.021 708.204 134.658 708.204 130.8C708.204 124.02 701.276 117.957 687.42 112.555C673.564 107.153 663.941 101.696 658.608 96.184C653.274 90.672 650.635 83.837 650.635 75.7343C650.635 65.6472 654.429 57.2688 661.962 50.5441C669.55 43.8194 679.007 40.5121 690.444 40.5121C701.881 40.5121 714.637 46.4101 728.823 58.261V58.3161Z" fill="white"/>
<path d="M64.7721 40.9536C30.4616 40.9536 2.47432 67.4666 0.219939 100.98H0V169.715H25.183V100.98C27.3824 81.0814 44.3177 65.5925 64.937 65.5925C65.8718 65.5925 66.8065 65.6476 67.7413 65.7579C71.5902 57.6551 76.5388 50.1587 82.4772 43.4891C76.8687 41.8906 70.9304 41.0087 64.8271 41.0087L64.7721 40.9536Z" fill="white"/>
<path d="M433.665 57.324C423.988 47.5125 411.341 42.6619 395.725 42.6619C380.11 42.6619 367.793 47.5677 357.951 57.324C357.126 58.0957 356.411 58.9776 355.697 59.8045C354.982 58.9776 354.267 58.1508 353.497 57.324C343.82 47.5125 331.173 42.6619 315.558 42.6619C299.942 42.6619 287.625 47.5677 277.783 57.324C267.941 67.1355 262.992 79.5928 262.992 94.751V167.124H288.175V98.8299C288.175 89.0184 290.595 81.3566 295.378 75.6792C300.162 70.0569 306.65 67.2457 314.843 67.2457C333.318 67.2457 342.555 77.7738 342.555 98.8299V167.124H368.398V98.8299C368.398 89.0184 370.817 81.3566 375.601 75.6792C380.385 70.0569 386.873 67.2457 395.066 67.2457C413.541 67.2457 422.778 77.7738 422.778 98.8299V167.124H448.291V95.6329C448.291 79.8684 443.452 67.0804 433.775 57.324H433.665Z" fill="white"/>
<path d="M942.989 132.95C935.786 139.95 925.944 144.25 915.057 144.25C892.953 144.25 875.083 126.446 875.083 104.508C875.083 82.5695 893.008 64.7655 915.057 64.7655C925.944 64.7655 935.786 69.0649 942.989 76.0653C946.673 68.624 951.787 62.0095 957.945 56.4974C946.508 46.3552 931.442 40.1266 914.892 40.1266C879.152 40.1266 850.12 68.9547 850.12 104.508C850.12 140.06 879.097 168.888 914.892 168.888C931.442 168.888 946.508 162.66 957.945 152.518C951.787 147.061 946.673 140.391 942.989 132.95Z" fill="white"/>
<path d="M775.835 50.0479V169.274H801.018V50.2133C797.169 51.5362 793.046 52.1976 788.702 52.1976C784.138 52.1976 779.849 51.4811 775.835 50.103V50.0479Z" fill="white"/>
<path d="M775.835 13.1723C775.835 9.75486 777.1 6.83347 779.574 4.35303C782.104 1.8726 785.073 0.604828 788.482 0.604828C791.891 0.604828 794.805 1.8726 797.279 4.35303C799.754 6.83347 801.018 9.75486 801.018 13.1723C801.018 16.5898 799.754 19.5663 797.279 22.0468C794.805 24.4721 791.891 25.7399 788.482 25.7399C785.073 25.7399 782.049 24.5272 779.574 22.0468C777.045 19.6215 775.835 16.6449 775.835 13.1723Z" fill="white"/>
</svg>
