<svg width="771" height="746" viewBox="0 0 771 746" fill="none" xmlns="http://www.w3.org/2000/svg">
<path d="M767.974 322.402C735.775 321.113 703.447 319.696 671.377 317.763C661.589 317.248 651.8 316.733 642.141 316.088C639.951 315.96 638.405 313.898 638.792 311.707C644.459 284.907 642.527 256.56 637.504 230.146C631.579 202.315 619.73 178.993 606.335 154.641C596.161 137.246 583.925 118.563 571.561 102.457C562.674 90.6027 551.984 77.4601 542.195 66.379C525.58 47.3094 507.034 28.2397 488.359 11.3605C484.623 7.88161 480.76 4.40269 477.025 1.05261C475.608 -0.235877 473.547 -0.364727 472.001 0.794914C470.198 2.0834 469.941 4.66038 471.358 6.46427C486.684 26.0493 502.655 46.6652 516.951 67.0233C519.398 70.2445 523.262 76.1716 525.452 79.3928C528.028 83.2583 531.376 88.0257 533.823 91.8911C536.657 96.4009 543.226 106.322 545.801 110.832C549.408 116.759 553.916 123.975 557.264 130.159C572.72 157.218 587.145 186.724 595.903 216.617C597.577 222.415 599.38 230.146 600.153 236.073C603.115 260.426 603.631 286.195 595.774 309.259C595.259 310.806 593.585 311.836 591.91 311.707C551.082 307.198 510.64 300.24 471.615 288.901C469.683 288.257 459.508 285.165 457.834 284.52C456.031 283.876 451.652 282.33 449.72 281.557C435.552 276.403 421.514 270.089 408.634 262.101C408.505 262.101 408.376 261.972 408.376 261.843C398.974 254.885 390.087 247.798 382.102 239.681C379.784 237.233 378.238 235.171 377.208 233.496C377.208 233.367 377.079 233.238 377.079 233.238C376.95 233.238 376.822 232.723 376.693 232.465C355.828 178.349 433.363 115.986 472.517 87.8968C476.896 84.9333 473.547 78.362 468.524 80.037C452.425 86.0929 437.355 93.695 422.673 102.328C397.429 117.017 370.768 138.019 353.381 163.66C353.123 164.047 352.866 164.304 352.479 164.562C343.721 170.876 336.895 179.38 330.97 188.141C323.5 199.222 317.06 210.174 309.719 220.74C308.56 222.286 306.37 222.802 304.696 221.642C279.838 205.021 248.412 198.063 215.956 198.965C183.499 199.351 150.785 206.953 123.223 224.734C108.154 234.785 91.7968 248.958 89.9937 268.414C89.9937 268.543 89.9937 268.672 89.9937 268.801C89.6073 312.996 172.68 302.817 201.402 298.694C243.389 291.994 279.71 276.403 307.272 244.706C308.689 243.16 311.136 243.031 312.553 244.577C341.66 273.826 350.418 319.567 336.895 358.093C336.122 360.284 333.546 361.186 331.614 360.026C297.612 340.57 256.526 330.262 219.562 326.396C201.015 324.335 182.211 325.237 163.665 326.912C132.625 329.875 37.0587 341.858 46.8471 387.213C46.8471 387.342 46.8471 387.471 46.9759 387.6C52.3853 406.798 69.9015 419.941 86.001 429.604C114.207 445.71 146.406 453.57 178.605 455.116C237.722 457.951 306.499 436.691 338.569 383.992C339.728 382.188 342.175 381.673 343.85 382.961C358.919 394.3 371.283 407.958 379.784 424.064C389.057 441.716 392.921 461.688 392.663 481.53C391.891 558.711 314.227 598.525 245.836 604.324C205.266 607.545 163.794 600.716 126.443 584.61C79.9476 564.38 38.8618 529.978 11.4283 487.2C7.04927 480.371 -2.99679 486.298 0.867077 493.385C1.63985 494.673 2.28383 495.833 3.0566 496.992C36.5435 546.857 86.7738 585.769 143.959 604.324C177.06 615.018 212.221 619.399 246.867 616.564C337.668 608.318 422.802 550.207 401.937 449.061C394.595 415.302 374.632 389.661 348.486 370.72C347.07 369.69 346.555 367.886 347.199 366.34C359.048 336.575 358.533 302.43 346.168 272.924C339.728 257.076 330.584 244.062 319.636 233.625C318.348 232.337 318.22 230.404 319.25 228.858C322.083 224.863 324.788 220.869 327.364 216.746C329.425 213.653 334.19 215.071 334.061 218.807C333.933 226.538 334.834 234.527 336.895 242.644C341.532 261.456 355.441 274.728 368.579 287.226C379.784 297.534 395.755 310.419 407.346 320.083C419.839 330.133 431.173 340.956 442.507 351.908C453.584 362.861 464.274 374.199 474.062 386.182C496.988 414.014 515.148 445.582 528.156 479.469C531.505 487.973 534.081 496.992 536.271 505.883C548.892 561.03 542.71 618.368 530.346 673.773C525.323 695.549 519.141 717.453 512.057 738.584C510.125 744.769 517.982 748.634 521.845 743.867C527.126 736.909 531.634 729.822 536.142 722.478C573.75 659.084 595.517 584.223 587.016 509.62C584.183 487.071 578.387 464.651 569.757 443.649C566.537 435.66 563.06 427.8 559.325 420.198C558.552 418.652 558.939 416.719 560.355 415.689C571.689 407.185 582.379 398.165 592.812 388.244C605.949 375.617 619.086 360.284 627.458 343.404C628.488 341.472 629.39 339.539 630.163 337.477C630.678 336.189 631.966 335.287 633.382 335.287C678.203 334.385 723.153 331.421 767.716 328.973C769.519 328.844 770.936 327.427 770.936 325.623C771.323 324.077 769.906 322.402 767.974 322.402ZM316.803 392.625C300.188 411.437 277.778 424.193 254.079 432.31C210.804 446.87 162.763 445.968 119.745 431.151C101.199 424.45 82.6523 414.916 69.1288 400.742C60.3707 391.207 53.1581 378.967 65.0073 368.53C87.6753 348.945 135.201 342.502 164.953 339.41C213.509 333.741 279.066 343.533 327.235 371.751C329.038 372.782 329.554 375.101 328.523 376.776C325.046 382.446 321.182 387.728 316.803 392.625ZM273.012 258.493C251.375 273.826 225.358 281.815 199.341 286.067C177.06 289.288 118.973 296.374 104.548 276.661C97.979 267.126 109.571 251.406 118.329 244.319C137.262 228.085 161.475 218.679 185.946 214.298C222.911 208.757 264.125 210.561 296.195 231.306C298.127 232.465 298.385 235.171 296.968 236.846C289.884 244.964 281.899 252.308 273.012 258.493ZM562.158 355.645C554.431 362.732 546.059 369.432 537.43 375.745C535.755 376.905 533.437 376.519 532.278 374.844C524.164 363.505 515.277 352.681 505.617 342.631C503.299 340.183 500.981 337.864 498.662 335.416C496.215 332.968 498.276 328.844 501.753 329.231C525.709 332.452 549.665 334.256 573.75 335.029C576.841 335.158 578.387 338.766 576.326 341.085C572.076 346.239 567.181 350.878 562.158 355.645Z" fill="white"/>
</svg>
